<?xml version="1.0" encoding="utf-8"?>
<!-- Generator: Adobe Illustrator 14.0.0, SVG Export Plug-In . SVG Version: 6.00 Build 43363)  -->
<!DOCTYPE svg PUBLIC "-//W3C//DTD SVG 1.1//EN" "http://www.w3.org/Graphics/SVG/1.1/DTD/svg11.dtd">
<svg version="1.1" id="katman_1" xmlns="http://www.w3.org/2000/svg" xmlns:xlink="http://www.w3.org/1999/xlink" x="0px" y="0px"
	 width="521.57px" height="566.93px" viewBox="0 0 521.57 566.93" enable-background="new 0 0 521.57 566.93" xml:space="preserve">
<linearGradient id="SVGID_1_" gradientUnits="userSpaceOnUse" x1="329.6248" y1="427.9309" x2="329.6247" y2="-136.762" gradientTransform="matrix(1 0 0 -1 -36.8149 429.4341)">
	<stop  offset="0" style="stop-color:#EEEEEE"/>
	<stop  offset="0.1818" style="stop-color:#C7C7C7"/>
	<stop  offset="0.2121" style="stop-color:#F0F0F0"/>
	<stop  offset="0.3333" style="stop-color:#E7E7E7"/>
	<stop  offset="0.4545" style="stop-color:#C7C7C7"/>
	<stop  offset="0.5212" style="stop-color:#908F8F"/>
	<stop  offset="0.5758" style="stop-color:#BDBDBD"/>
	<stop  offset="0.6303" style="stop-color:#B1B0B1"/>
	<stop  offset="0.697" style="stop-color:#F1F1F1"/>
	<stop  offset="0.8909" style="stop-color:#969696"/>
	<stop  offset="1" style="stop-color:#F1F1F1"/>
</linearGradient>
<path fill="url(#SVGID_1_)" d="M114.323,1.527c-2.171,0-18.752-0.039-20.917-0.017l42.604,136.194
	c57.424,24.646,105.353,60.213,110.578,149.436c5.283,90.15-75.18,146.636-142.314,145.231c-5.979-0.124-34.637-4.979-40.469-5.615
	l91.627,139.44h9.04c219.151-31.705,341.923-116.511,356.593-274.274C535.552,136.067,338.513,1.527,114.323,1.527z"/>
<radialGradient id="SVGID_2_" cx="112.8914" cy="188.8992" r="114.8463" fx="119.2919" fy="189.3853" gradientTransform="matrix(0.8484 -0.5349 -0.5705 -0.8974 149.6606 486.1031)" gradientUnits="userSpaceOnUse">
	<stop  offset="0" style="stop-color:#FCFDFD"/>
	<stop  offset="0.4182" style="stop-color:#94C3E6"/>
	<stop  offset="0.6485" style="stop-color:#6893C8"/>
	<stop  offset="1" style="stop-color:#094391"/>
</radialGradient>
<path fill="url(#SVGID_2_)" d="M207.424,267.364c10.969,56.675-26.277,111.479-83.188,122.402
	C67.323,400.689,12.292,363.596,1.323,306.92c-10.968-56.673,26.278-111.479,83.19-122.401
	C141.424,173.594,196.455,210.688,207.424,267.364z"/>
<linearGradient id="SVGID_3_" gradientUnits="userSpaceOnUse" x1="329.9412" y1="413.5667" x2="329.941" y2="-122.4163" gradientTransform="matrix(1 0 0 -1 -36.8149 429.4341)">
	<stop  offset="0" style="stop-color:#C7C7C7"/>
	<stop  offset="0.3939" style="stop-color:#F0F0F0"/>
	<stop  offset="0.7212" style="stop-color:#A4A4A5"/>
	<stop  offset="1" style="stop-color:#EFEFEF"/>
</linearGradient>
<path fill="url(#SVGID_3_)" d="M112.205,15.877c-2.061,0-0.007-0.021-2.061,0l34.955,114.029
	c69.86,28.392,116.854,70.623,116.854,155.678c0,85.711-71.823,157.237-157.892,157.237c-5.675,0-11.283-0.329-16.818-0.937
	l72.565,109.966l0,0c208.03-30.097,324.567-110.587,338.489-260.338C512.05,143.578,325.018,15.877,112.205,15.877z"/>
</svg>
