<?xml version="1.0" encoding="utf-8"?>
<!-- Generator: Adobe Illustrator 19.2.0, SVG Export Plug-In . SVG Version: 6.00 Build 0)  -->
<svg version="1.1" id="Layer_1" xmlns="http://www.w3.org/2000/svg" xmlns:xlink="http://www.w3.org/1999/xlink" x="0px" y="0px"
	 viewBox="0 0 70 70" style="enable-background:new 0 0 70 70;" xml:space="preserve">
<style type="text/css">
	.st0{fill:url(#SVGID_1_);}
	.st1{fill:url(#SVGID_2_);}
	.st2{fill:url(#SVGID_3_);}
	.st3{fill:url(#SVGID_4_);}
	.st4{fill:url(#SVGID_5_);}
	.st5{fill:url(#SVGID_6_);}
	.st6{fill:url(#SVGID_7_);}
	.st7{fill:url(#SVGID_8_);}
	.st8{fill:url(#SVGID_9_);}
	.st9{fill:url(#SVGID_10_);}
	.st10{fill:url(#SVGID_11_);}
	.st11{fill:url(#SVGID_12_);}
	.st12{fill:#FFFFFF;}
	.st13{fill:#EDA32F;}
	.st14{fill:#FCFCFC;}
</style>
<g>
	<g>
		<linearGradient id="SVGID_1_" gradientUnits="userSpaceOnUse" x1="35.6255" y1="12.2737" x2="74.026" y2="35.5975">
			<stop  offset="0" style="stop-color:#FBE93C"/>
			<stop  offset="1" style="stop-color:#00B04C"/>
		</linearGradient>
		<path class="st0" d="M39.7,26.1c0,0,7.2-11.6,9.2-16c2-4.5-2.6-7-7.6-7.7s-5.9,4-5.9,4s0,17.3,0,18.6c0,0.9,0.1,1.7,0.2,2.1
			c1,0.1,2,0.3,2.9,0.8C39.1,27.3,39.7,26.1,39.7,26.1z"/>
		<linearGradient id="SVGID_2_" gradientUnits="userSpaceOnUse" x1="33.0222" y1="6.6623" x2="14.5946" y2="42.2288">
			<stop  offset="0" style="stop-color:#FBE93C"/>
			<stop  offset="0.7528" style="stop-color:#D54F2B"/>
			<stop  offset="1" style="stop-color:#A179B6"/>
		</linearGradient>
		<path class="st1" d="M34.7,25c-0.1-1.3,0-18.6,0-18.6s-0.9-4.7-5.9-4c-5,0.7-9.6,3.2-7.6,7.7s9.2,16,9.2,16s0.7,1.1,1.3,1.8
			c0.9-0.4,1.9-0.7,2.9-0.7C34.6,26.7,34.8,25.9,34.7,25z"/>
		<radialGradient id="SVGID_3_" cx="55.4195" cy="48.27" r="62.2258" gradientUnits="userSpaceOnUse">
			<stop  offset="0" style="stop-color:#C77EB5"/>
			<stop  offset="0.25" style="stop-color:#0090D3"/>
			<stop  offset="0.5" style="stop-color:#585FAA"/>
			<stop  offset="0.7528" style="stop-color:#894299"/>
			<stop  offset="1" style="stop-color:#9AD0F1"/>
		</radialGradient>
		<path class="st2" d="M30.3,43.9c0,0-7.2,11.6-9.2,16s2.6,7,7.6,7.7c5,0.7,5.9-4,5.9-4s0-17.3,0-18.6c0-0.9-0.1-1.7-0.2-2.1
			c-1-0.1-2-0.3-2.9-0.8C30.9,42.7,30.3,43.9,30.3,43.9z"/>
		<linearGradient id="SVGID_4_" gradientUnits="userSpaceOnUse" x1="30.5117" y1="61.8564" x2="62.4692" y2="39.3058">
			<stop  offset="0" style="stop-color:#2E3192"/>
			<stop  offset="0.4382" style="stop-color:#00AEEF"/>
			<stop  offset="1" style="stop-color:#43B649"/>
		</linearGradient>
		<path class="st3" d="M35.3,45c0.1,1.3,0,18.6,0,18.6s0.9,4.7,5.9,4s9.6-3.2,7.6-7.7c-2-4.5-9.2-16-9.2-16s-0.7-1.2-1.3-1.8
			c-0.9,0.4-1.9,0.7-2.9,0.7C35.4,43.3,35.2,44.1,35.3,45z"/>
		<linearGradient id="SVGID_5_" gradientUnits="userSpaceOnUse" x1="28.3601" y1="4.2461" x2="9.9333" y2="39.8112">
			<stop  offset="0" style="stop-color:#FBE93C"/>
			<stop  offset="0.7528" style="stop-color:#D54F2B"/>
			<stop  offset="1" style="stop-color:#A179B6"/>
		</linearGradient>
		<path class="st4" d="M26.1,30.3c0,0-11.6-7.2-16-9.2s-7,2.6-7.7,7.6s4,5.9,4,5.9s17.3,0,18.6,0c0.9,0,1.7-0.1,2.1-0.2
			c0.1-1,0.3-2,0.8-2.9C27.3,30.9,26.1,30.3,26.1,30.3z"/>
		<linearGradient id="SVGID_6_" gradientUnits="userSpaceOnUse" x1="28.6645" y1="4.6108" x2="10.2375" y2="40.176">
			<stop  offset="0" style="stop-color:#FBE93C"/>
			<stop  offset="0.7528" style="stop-color:#D54F2B"/>
			<stop  offset="1" style="stop-color:#A179B6"/>
		</linearGradient>
		<path class="st5" d="M30.6,28.4c-0.2-0.8-0.9-1.9-0.9-1.9s-6.5-12-9.4-15.9C17.5,6.7,13,9.4,10,13.4c-3.1,4,0.6,7.1,0.6,7.1
			s15,8.6,16.1,9.3c0.7,0.4,1.4,0.7,1.8,0.8C29,29.7,29.8,29,30.6,28.4z"/>
		<linearGradient id="SVGID_7_" gradientUnits="userSpaceOnUse" x1="31.0082" y1="62.5003" x2="62.9662" y2="39.9493">
			<stop  offset="0" style="stop-color:#2E3192"/>
			<stop  offset="0.4382" style="stop-color:#00AEEF"/>
			<stop  offset="1" style="stop-color:#43B649"/>
		</linearGradient>
		<path class="st6" d="M39.5,41.5c0.2,0.8,0.9,2,0.9,2s6.5,12,9.4,15.9c2.9,3.9,7.4,1.2,10.4-2.8c3.1-4-0.6-7.1-0.6-7.1
			s-15-8.6-16.1-9.3c-0.8-0.5-1.6-0.8-2-0.9C41,40.2,40.3,40.9,39.5,41.5z"/>
		<radialGradient id="SVGID_8_" cx="35.1295" cy="34.3353" r="51.7548" gradientUnits="userSpaceOnUse">
			<stop  offset="0" style="stop-color:#C77EB5"/>
			<stop  offset="0.25" style="stop-color:#0090D3"/>
			<stop  offset="0.5" style="stop-color:#585FAA"/>
			<stop  offset="0.7528" style="stop-color:#894299"/>
			<stop  offset="1" style="stop-color:#9AD0F1"/>
		</radialGradient>
		<path class="st7" d="M25,35.3c-1.3,0.1-18.6,0-18.6,0s-4.7,0.9-4,5.9s3.2,9.6,7.7,7.6c4.5-2,16-9.2,16-9.2s1.2-0.7,1.8-1.3
			c-0.4-0.9-0.7-1.9-0.8-2.9C26.7,35.4,25.9,35.2,25,35.3z"/>
		<linearGradient id="SVGID_9_" gradientUnits="userSpaceOnUse" x1="28.851" y1="59.5021" x2="60.8092" y2="36.9509">
			<stop  offset="0" style="stop-color:#2E3192"/>
			<stop  offset="0.4382" style="stop-color:#00AEEF"/>
			<stop  offset="1" style="stop-color:#43B649"/>
		</linearGradient>
		<path class="st8" d="M63.6,35.4c0,0-17.3,0-18.6,0c-0.9,0-1.7,0.1-2.1,0.2c-0.1,1-0.3,2-0.8,2.9c0.6,0.6,1.8,1.3,1.8,1.3
			s11.6,7.2,16,9.2c4.5,2,7-2.6,7.7-7.6S63.6,35.4,63.6,35.4z"/>
		<linearGradient id="SVGID_10_" gradientUnits="userSpaceOnUse" x1="33.4908" y1="15.7885" x2="71.8917" y2="39.1126">
			<stop  offset="0" style="stop-color:#FBE93C"/>
			<stop  offset="1" style="stop-color:#00B04C"/>
		</linearGradient>
		<path class="st9" d="M45,34.7c1.3-0.1,18.6,0,18.6,0s4.7-0.9,4-5.9s-3.2-9.6-7.7-7.6s-16,9.2-16,9.2s-1.2,0.7-1.8,1.3
			c0.4,0.9,0.7,1.9,0.7,2.9C43.3,34.6,44.1,34.8,45,34.7z"/>
		<linearGradient id="SVGID_11_" gradientUnits="userSpaceOnUse" x1="35.7035" y1="12.0538" x2="74.1037" y2="35.3774">
			<stop  offset="0" style="stop-color:#FBE93C"/>
			<stop  offset="1" style="stop-color:#00B04C"/>
		</linearGradient>
		<path class="st10" d="M41.5,30.5c0.4-0.1,1.2-0.4,2-0.9c1.1-0.7,16.2-9.2,16.2-9.2s3.6-3.1,0.6-7.1c-3-4-7.5-6.8-10.4-2.8
			c-2.9,3.9-9.4,15.9-9.4,15.9s-0.7,1.2-0.9,2.1C40.3,29,41,29.7,41.5,30.5z"/>
		<radialGradient id="SVGID_12_" cx="55.4193" cy="48.2694" r="62.229" gradientUnits="userSpaceOnUse">
			<stop  offset="0" style="stop-color:#C77EB5"/>
			<stop  offset="0.25" style="stop-color:#0090D3"/>
			<stop  offset="0.5" style="stop-color:#585FAA"/>
			<stop  offset="0.7528" style="stop-color:#894299"/>
			<stop  offset="1" style="stop-color:#9AD0F1"/>
		</radialGradient>
		<path class="st11" d="M28.3,39.3c-0.4,0.1-1.1,0.4-1.9,0.9c-1.1,0.7-16.1,9.3-16.1,9.3s-3.6,3.1-0.5,7.1c3.1,4,7.5,6.7,10.4,2.8
			c2.9-3.9,9.4-15.9,9.4-15.9s0.6-1.1,0.9-1.9C29.6,40.9,28.9,40.2,28.3,39.3z"/>
	</g>
	<path class="st12" d="M42.9,35c0-0.2,0-0.3,0-0.5c-0.1-1-0.3-2-0.7-2.9c-0.2-0.4-0.4-0.7-0.6-1.1c-0.6-0.8-1.3-1.5-2.1-2.1
		c-0.3-0.2-0.7-0.4-1-0.6c-0.9-0.4-1.9-0.7-2.9-0.8c-0.2,0-0.4,0-0.6,0c-0.2,0-0.3,0-0.5,0c-1,0.1-2,0.3-2.9,0.7
		c-0.3,0.2-0.7,0.3-1,0.5c-0.9,0.6-1.6,1.3-2.2,2.2c-0.2,0.3-0.4,0.6-0.6,1c-0.4,0.9-0.7,1.9-0.8,2.9c0,0.2,0,0.4,0,0.5
		c0,0.2,0,0.3,0,0.5c0.1,1,0.3,2,0.8,2.9c0.1,0.3,0.3,0.6,0.5,0.9c0.6,0.9,1.3,1.6,2.1,2.2c0.3,0.2,0.7,0.4,1.1,0.6
		c0.9,0.4,1.9,0.7,2.9,0.8c0.2,0,0.4,0,0.5,0c0.2,0,0.3,0,0.5,0c1-0.1,2-0.3,2.9-0.7c0.4-0.2,0.8-0.4,1.2-0.7
		c0.8-0.6,1.5-1.3,2.1-2.1c0.2-0.3,0.4-0.6,0.5-0.9c0.4-0.9,0.7-1.9,0.8-2.9C42.9,35.4,42.9,35.2,42.9,35z"/>
	<circle class="st13" cx="35" cy="35" r="3.8"/>
	<polygon class="st12" points="15.4,27.7 19,27.7 19,33.7 22.8,33.7 22.8,27.7 26.3,27.7 26.3,42.5 22.8,42.5 22.8,36.2 19,36.2 
		19,42.6 15.4,42.6 	"/>
	<polygon class="st14" points="42.2,27.7 45.9,27.7 48.6,38.1 51.3,27.7 54.4,27.7 57,38.1 59.2,27.7 63.2,27.7 59.1,42.6 
		55.3,42.6 52.9,33.1 50.1,42.5 46.2,42.5 	"/>
	<path class="st12" d="M5.5,41.8l0.8-2.5c0,0,3.3,1.9,4.3-0.5c1-2.3-2.8-2.5-4.3-4.7c-1.5-2.1-0.4-6.9,4.2-6.9
		c3,0.3,3.5,0.9,3.5,0.9l-0.8,2.1c0,0-3.8-2-4,1.1c0,0.8,0.4,1.5,1.2,1.9c0.7,0.4,1.5,0.6,2.1,1c1.9,1.2,2.6,3.9,1.5,5.9
		c-0.2,0.4-0.6,0.8-0.9,1.2c-0.4,0.3-0.9,0.9-1.4,1C11.7,42.3,8.7,43.5,5.5,41.8z"/>
</g>
</svg>
