<?xml version="1.0" encoding="utf-8"?>
<!-- Generator: Adobe Illustrator 20.1.0, SVG Export Plug-In . SVG Version: 6.00 Build 0)  -->
<!DOCTYPE svg PUBLIC "-//W3C//DTD SVG 1.1//EN" "http://www.w3.org/Graphics/SVG/1.1/DTD/svg11.dtd">
<svg version="1.1" id="Layer_1" xmlns="http://www.w3.org/2000/svg" xmlns:xlink="http://www.w3.org/1999/xlink" x="0px" y="0px"
	 viewBox="0 0 173.5 201.5" style="enable-background:new 0 0 173.5 201.5;" xml:space="preserve">
<style type="text/css">
	.st0{fill:#137AB8;}
	.st1{fill-rule:evenodd;clip-rule:evenodd;fill:#E19B26;}
	.st2{fill-rule:evenodd;clip-rule:evenodd;fill:#DB2B2C;}
	.st3{fill-rule:evenodd;clip-rule:evenodd;fill:#EB6A45;}
	.st4{fill-rule:evenodd;clip-rule:evenodd;fill:#D14D28;}
	.st5{fill-rule:evenodd;clip-rule:evenodd;fill:#E05627;}
	.st6{fill-rule:evenodd;clip-rule:evenodd;fill:#B64126;}
	.st7{fill-rule:evenodd;clip-rule:evenodd;fill:#C02232;}
	.st8{fill-rule:evenodd;clip-rule:evenodd;fill:#BB782A;}
	.st9{fill-rule:evenodd;clip-rule:evenodd;fill:#4051A2;}
	.st10{fill-rule:evenodd;clip-rule:evenodd;fill:#72459A;}
	.st11{fill-rule:evenodd;clip-rule:evenodd;fill:#5D3E88;}
	.st12{fill-rule:evenodd;clip-rule:evenodd;fill:#472E7C;}
	.st13{fill-rule:evenodd;clip-rule:evenodd;fill:#543387;}
	.st14{fill-rule:evenodd;clip-rule:evenodd;fill:#5C2C7A;}
	.st15{fill-rule:evenodd;clip-rule:evenodd;fill:#27397C;}
	.st16{fill-rule:evenodd;clip-rule:evenodd;fill:#2D7ABD;}
	.st17{fill-rule:evenodd;clip-rule:evenodd;fill:#374599;}
	.st18{fill-rule:evenodd;clip-rule:evenodd;fill:#2D73B9;}
	.st19{fill-rule:evenodd;clip-rule:evenodd;fill:#4389C8;}
	.st20{fill-rule:evenodd;clip-rule:evenodd;fill:#0D589B;}
	.st21{fill-rule:evenodd;clip-rule:evenodd;fill:#3C7FC1;}
	.st22{fill-rule:evenodd;clip-rule:evenodd;fill:#2B3B82;}
	.st23{fill-rule:evenodd;clip-rule:evenodd;fill:#2572B5;}
	.st24{fill-rule:evenodd;clip-rule:evenodd;fill:#DD2532;}
	.st25{fill-rule:evenodd;clip-rule:evenodd;fill:#991B3B;}
	.st26{fill-rule:evenodd;clip-rule:evenodd;fill:#A51D32;}
	.st27{fill-rule:evenodd;clip-rule:evenodd;fill:#BE234D;}
	.st28{fill-rule:evenodd;clip-rule:evenodd;fill:#931F3B;}
	.st29{fill-rule:evenodd;clip-rule:evenodd;fill:#99223E;}
	.st30{fill-rule:evenodd;clip-rule:evenodd;fill:#861631;}
	.st31{fill-rule:evenodd;clip-rule:evenodd;fill:#B42126;}
	.st32{fill-rule:evenodd;clip-rule:evenodd;fill:#6E3B96;}
	.st33{fill-rule:evenodd;clip-rule:evenodd;fill:#A5287F;}
	.st34{fill-rule:evenodd;clip-rule:evenodd;fill:#873C94;}
	.st35{fill-rule:evenodd;clip-rule:evenodd;fill:#9F60A6;}
	.st36{fill-rule:evenodd;clip-rule:evenodd;fill:#6F2C73;}
	.st37{fill-rule:evenodd;clip-rule:evenodd;fill:#7D3B83;}
	.st38{fill-rule:evenodd;clip-rule:evenodd;fill:#90276C;}
	.st39{fill-rule:evenodd;clip-rule:evenodd;fill:#5F2E7B;}
	.st40{fill-rule:evenodd;clip-rule:evenodd;fill:#362266;}
</style>
<g>
	<g>
		<path class="st0" d="M52.8,199.5c-1.5,0-2.9-0.3-4.4-0.8c-1.4-0.5-2.7-1.3-3.9-2.4l2.5-3c0.9,0.7,1.8,1.3,2.8,1.7
			c0.9,0.4,2,0.6,3.1,0.6c0.9,0,1.6-0.2,2.1-0.5c0.5-0.3,0.7-0.8,0.7-1.4v-0.1c0-0.3-0.1-0.5-0.2-0.7c-0.1-0.2-0.3-0.4-0.6-0.6
			c-0.3-0.2-0.7-0.4-1.2-0.6c-0.5-0.2-1.2-0.4-2-0.6c-1-0.2-1.9-0.5-2.7-0.8c-0.8-0.3-1.5-0.7-2-1.1c-0.6-0.4-1-1-1.3-1.6
			c-0.3-0.6-0.5-1.5-0.5-2.4v-0.1c0-0.9,0.2-1.7,0.5-2.4c0.3-0.7,0.8-1.3,1.4-1.9c0.6-0.5,1.3-0.9,2.2-1.2c0.8-0.3,1.8-0.4,2.8-0.4
			c1.4,0,2.8,0.2,4,0.6c1.2,0.4,2.3,1,3.3,1.9l-2.2,3.2c-0.9-0.6-1.7-1.1-2.6-1.4c-0.8-0.3-1.7-0.5-2.5-0.5c-0.8,0-1.5,0.2-1.9,0.5
			c-0.4,0.3-0.6,0.7-0.6,1.2v0.1c0,0.3,0.1,0.6,0.2,0.8c0.1,0.2,0.3,0.4,0.7,0.6c0.3,0.2,0.7,0.4,1.3,0.5c0.5,0.2,1.2,0.4,2.1,0.6
			c1,0.3,1.9,0.6,2.6,0.9c0.8,0.3,1.4,0.7,2,1.2c0.5,0.5,0.9,1,1.2,1.6c0.3,0.6,0.4,1.3,0.4,2.2v0.1c0,1-0.2,1.8-0.5,2.6
			c-0.4,0.8-0.8,1.4-1.5,1.9c-0.6,0.5-1.4,0.9-2.3,1.2C54.8,199.3,53.9,199.5,52.8,199.5z"/>
		<path class="st0" d="M71.2,183.6h-5.9v-4h16.2v4h-5.9v15.6h-4.3V183.6z"/>
		<path class="st0" d="M94.5,179.5h4l8.4,19.7h-4.5l-1.8-4.4h-8.3l-1.8,4.4h-4.4L94.5,179.5z M99,191l-2.6-6.3l-2.6,6.3H99z"/>
		<path class="st0" d="M113.8,179.6h8.9c2.5,0,4.4,0.7,5.7,2c1.1,1.1,1.7,2.6,1.7,4.5v0.1c0,1.6-0.4,2.9-1.2,3.9
			c-0.8,1-1.8,1.7-3,2.2l4.8,7h-5l-4.2-6.3h-3.4v6.3h-4.3V179.6z M122.4,189.1c1.1,0,1.9-0.2,2.4-0.8c0.6-0.5,0.9-1.2,0.9-2v-0.1
			c0-0.9-0.3-1.6-0.9-2.1c-0.6-0.5-1.4-0.7-2.5-0.7h-4.3v5.6H122.4z"/>
	</g>
	<g>
		<polygon class="st1" points="44.5,133.9 18.5,134.4 33.5,113.8 49.5,118.9 44.5,133.9 		"/>
		<polygon class="st2" points="22.4,67.8 2.1,82.3 27.5,90.2 36.6,78 22.4,67.8 		"/>
		<polygon class="st3" points="50,117.3 17.1,106.9 37.9,79 57.8,93.4 50,117.3 		"/>
		<polygon class="st4" points="17.1,106.9 57.8,93.4 50,117.3 		"/>
		<polygon class="st5" points="37.9,79 47.1,96.9 57.8,93.4 		"/>
		<polygon class="st6" points="57.8,93.4 47.1,96.9 49.9,117.3 		"/>
		<polygon class="st7" points="22.4,67.8 27.5,90.2 36.6,78 		"/>
		<polygon class="st8" points="33.5,113.8 44.5,133.9 49.5,118.9 		"/>
	</g>
	<polygon class="st9" points="128.6,133.9 154.7,134.4 139.6,113.8 123.7,118.9 128.6,133.9 	"/>
	<polygon class="st10" points="150.7,67.8 136.6,78 145.6,90.2 171.1,82.3 150.7,67.8 	"/>
	<polygon class="st11" points="123.1,117.3 156,106.9 135.2,79 115.3,93.4 123.1,117.3 	"/>
	<polygon class="st12" points="156,106.9 115.3,93.4 123.1,117.3 	"/>
	<polygon class="st13" points="135.2,79 126,96.9 115.3,93.4 	"/>
	<polygon class="st14" points="150.7,67.8 145.6,90.2 136.6,78 	"/>
	<polygon class="st15" points="139.6,113.8 128.6,133.9 123.7,118.9 	"/>
	<polygon class="st16" points="52.2,139.6 59.9,164.6 74.8,143.8 65,130.3 52.2,139.6 	"/>
	<polygon class="st17" points="122,140.1 107.8,129.8 99.1,142.2 114.5,163.9 122,140.1 	"/>
	<polygon class="st18" points="66.3,129.3 86.5,157.3 106.5,128.8 86.6,114.4 66.3,129.3 	"/>
	<polygon class="st19" points="86.5,157.3 86.6,114.4 66.3,129.3 	"/>
	<polygon class="st20" points="106.5,128.8 86.6,125.7 86.6,114.4 	"/>
	<polygon class="st21" points="86.6,114.4 86.6,125.7 66.3,129.3 	"/>
	<polygon class="st22" points="122,140.1 99.1,142.2 107.8,129.8 	"/>
	<polygon class="st23" points="74.8,143.8 52.2,139.6 65,130.3 	"/>
	<polygon class="st24" points="25.1,58.9 16.9,34.2 41,42.4 41,59.1 25.1,58.9 	"/>
	<polygon class="st25" points="81.6,18 61.7,3 61.8,29.6 76.1,34.6 81.6,18 	"/>
	<polygon class="st26" points="42.6,59.2 42.7,24.7 75.6,36.2 67.8,59.5 42.6,59.2 	"/>
	<polygon class="st27" points="42.7,24.7 67.8,59.5 42.6,59.2 	"/>
	<polygon class="st28" points="75.6,36.2 61.2,50.3 67.8,59.5 	"/>
	<polygon class="st29" points="67.8,59.5 61.2,50.3 42.6,59.1 	"/>
	<polygon class="st30" points="81.6,18 61.8,29.6 76.1,34.6 	"/>
	<polygon class="st31" points="41,42.4 25.1,58.9 41,59.1 	"/>
	<polygon class="st32" points="148.2,58.5 156.4,33.7 132.3,42 132.3,58.7 148.2,58.5 	"/>
	<polygon class="st33" points="91.6,17.6 97.2,34.2 111.5,29.2 111.6,2.5 91.6,17.6 	"/>
	<polygon class="st34" points="130.7,58.7 130.5,24.2 97.7,35.7 105.5,59 130.7,58.7 	"/>
	<polygon class="st35" points="130.5,24.2 105.5,59 130.7,58.7 	"/>
	<polygon class="st36" points="97.7,35.7 112.1,49.9 105.5,59 	"/>
	<polygon class="st37" points="105.5,59 112.1,49.8 130.7,58.7 	"/>
	<polygon class="st38" points="91.6,17.6 111.5,29.2 97.2,34.2 	"/>
	<polygon class="st39" points="132.3,42 148.2,58.5 132.3,58.7 	"/>
	<polygon class="st40" points="115.4,93.4 126.1,96.9 123.2,117.3 	"/>
</g>
</svg>
