<?xml version="1.0" encoding="UTF-8"?>
<svg xmlns="http://www.w3.org/2000/svg" xmlns:xlink="http://www.w3.org/1999/xlink" width="776pt" height="300pt" viewBox="0 0 776 300" version="1.1">
<defs>
<linearGradient id="linear0" gradientUnits="userSpaceOnUse" x1="1164.4456" y1="-46.7306" x2="1164.4456" y2="562.7993" gradientTransform="matrix(0.576523,0,0,0.576923,0,0)">
<stop offset="0" style="stop-color:rgb(72.941176%,0%,0%);stop-opacity:1;"/>
<stop offset="1" style="stop-color:rgb(93.333333%,0%,0%);stop-opacity:1;"/>
</linearGradient>
</defs>
<g id="surface1">
<path style=" stroke:none;fill-rule:nonzero;fill:rgb(9.019608%,9.019608%,7.843137%);fill-opacity:1;" d="M 322.726562 187.5625 C 340.582031 176.46875 352.375 153.035156 352.375 129.265625 C 352.375 81.675781 314.074219 60.015625 278.265625 60.015625 L 191.234375 60.015625 C 186.757812 60.144531 183.191406 63.789062 183.191406 68.25 L 183.191406 247.171875 L 213.640625 247.171875 C 218.019531 247.1875 222.226562 245.464844 225.339844 242.382812 C 228.441406 239.308594 230.1875 235.121094 230.1875 230.746094 L 230.1875 198.789062 L 272.480469 198.789062 L 306.273438 247.171875 L 357.074219 247.171875 L 316.988281 191.023438 Z M 278.828125 155.882812 L 229.675781 155.882812 L 229.675781 102.125 L 278.828125 102.125 C 286.058594 101.882812 293.070312 104.640625 298.199219 109.742188 C 303.316406 114.832031 306.085938 121.8125 305.851562 129.023438 C 305.949219 136.195312 303.136719 143.09375 298.046875 148.140625 C 292.941406 153.214844 286.011719 156 278.828125 155.882812 Z M 361.78125 68.25 L 361.78125 102.632812 L 422.402344 102.632812 L 422.402344 247.171875 L 452.898438 247.171875 C 461.984375 247.195312 469.371094 239.839844 469.394531 230.746094 L 469.394531 102.632812 L 516.058594 102.632812 C 523.660156 102.632812 529.832031 96.5 529.832031 88.925781 L 529.832031 60.011719 L 370.046875 60.011719 C 365.480469 60.015625 361.78125 63.703125 361.78125 68.25 Z M -0.0820312 68.25 L -0.0820312 102.632812 L 60.355469 102.632812 L 60.355469 247.171875 L 90.855469 247.171875 C 99.953125 247.195312 107.355469 239.851562 107.402344 230.746094 L 107.402344 102.632812 L 154.019531 102.632812 C 161.609375 102.65625 167.792969 96.523438 167.832031 88.925781 L 167.832031 60.011719 L 8.046875 60.011719 C 3.535156 60.09375 -0.0820312 63.753906 -0.0820312 68.25 Z M -0.0820312 68.25 "/>
<path style=" stroke:none;fill-rule:nonzero;fill:rgb(100%,100%,100%);fill-opacity:1;" d="M 615.910156 95.527344 C 626.613281 95.417969 637.3125 95.476562 648.007812 95.515625 C 651.472656 95.527344 651.4375 95.589844 651.4375 99.136719 C 651.417969 154.730469 651.414062 210.324219 651.417969 265.914062 C 651.417969 269.175781 651.460938 269.1875 654.734375 269.1875 C 669.550781 269.1875 684.363281 269.1875 699.179688 269.175781 C 702.949219 269.175781 703.011719 269.117188 703.011719 265.273438 C 703.019531 226.730469 703.011719 188.1875 703.011719 149.640625 C 703.011719 149.640625 703.007812 149.640625 703.007812 149.640625 C 703.007812 110.929688 702.988281 72.226562 703.050781 33.511719 C 703.058594 31.25 702.425781 30.554688 700.152344 30.578125 C 690.445312 30.679688 680.730469 30.722656 671.019531 30.542969 C 668.027344 30.484375 666.355469 31.417969 664.777344 34.066406 C 653.707031 52.550781 637.710938 63.53125 615.921875 65.261719 C 613.535156 65.453125 612.878906 66.511719 612.902344 68.722656 C 612.976562 76.625 613.015625 84.535156 612.878906 92.441406 C 612.839844 94.804688 613.5 95.554688 615.910156 95.527344 Z M 615.910156 95.527344 "/>
<path style=" stroke:none;fill-rule:nonzero;fill:url(#linear0);" d="M 566.660156 0 C 566.660156 100.050781 566.660156 199.925781 566.660156 300.074219 C 636.578125 300.074219 706.242188 300.074219 776 300.074219 C 776 199.9375 776 99.953125 776 0 C 706.097656 0 636.433594 0 566.660156 0 Z M 703.007812 149.648438 C 703.007812 149.648438 703.011719 149.648438 703.011719 149.648438 C 703.011719 188.191406 703.011719 226.738281 703.011719 265.28125 C 703.011719 269.125 702.949219 269.175781 699.179688 269.179688 C 684.363281 269.1875 669.550781 269.191406 654.734375 269.191406 C 651.460938 269.191406 651.417969 269.179688 651.417969 265.921875 C 651.417969 210.328125 651.425781 154.738281 651.4375 99.144531 C 651.4375 95.597656 651.476562 95.53125 648.007812 95.519531 C 637.304688 95.480469 626.605469 95.421875 615.910156 95.53125 C 613.507812 95.554688 612.84375 94.8125 612.882812 92.453125 C 613.015625 84.546875 612.980469 76.636719 612.90625 68.734375 C 612.882812 66.523438 613.542969 65.464844 615.929688 65.273438 C 637.714844 63.542969 653.714844 52.570312 664.78125 34.078125 C 666.367188 31.4375 668.035156 30.5 671.027344 30.554688 C 680.734375 30.734375 690.449219 30.691406 700.160156 30.589844 C 702.429688 30.566406 703.058594 31.261719 703.058594 33.523438 C 702.988281 72.230469 703.007812 110.941406 703.007812 149.648438 Z M 703.007812 149.648438 "/>
</g>
</svg>
