<?xml version="1.0" encoding="utf-8"?>
<!-- Generator: Adobe Illustrator 18.0.0, SVG Export Plug-In . SVG Version: 6.00 Build 0)  -->
<!DOCTYPE svg PUBLIC "-//W3C//DTD SVG 1.1//EN" "http://www.w3.org/Graphics/SVG/1.1/DTD/svg11.dtd">
<svg version="1.1" id="Слой_1" xmlns="http://www.w3.org/2000/svg" xmlns:xlink="http://www.w3.org/1999/xlink" x="0px" y="0px"
	 viewBox="0 0 300 160" enable-background="new 0 0 300 160" xml:space="preserve">
<g>
	
		<radialGradient id="SVGID_1_" cx="147" cy="209.3333" r="230.0087" gradientTransform="matrix(4.489659e-011 -1 2 8.979319e-011 -271.6667 356.3333)" gradientUnits="userSpaceOnUse">
		<stop  offset="0" style="stop-color:#000000"/>
		<stop  offset="0.5747" style="stop-color:#000000"/>
		<stop  offset="0.5977" style="stop-color:#7D7D7D"/>
		<stop  offset="0.6398" style="stop-color:#575757"/>
		<stop  offset="0.751" style="stop-color:#000000"/>
		<stop  offset="1" style="stop-color:#000000"/>
	</radialGradient>
	<path fill="url(#SVGID_1_)" d="M102.4,85.3c0.2,21.4,18.8,28.6,19,28.7c-0.2,0.5-3,10.2-9.8,20.1c-5.9,8.6-12,17.2-21.7,17.4
		c-9.5,0.2-12.5-5.6-23.4-5.6c-10.8,0-14.2,5.4-23.2,5.8C34.1,152,27,142.3,21,133.7C8.9,116.1-0.4,84,12.1,62.4
		c6.2-10.8,17.3-17.6,29.3-17.7c9.1-0.2,17.8,6.2,23.4,6.2c5.6,0,16.1-7.6,27.1-6.5c4.6,0.2,17.6,1.9,25.9,14
		C117.1,58.8,102.3,67.4,102.4,85.3 M84.6,32.7c4.9-6,8.3-14.3,7.4-22.6c-7.1,0.3-15.7,4.7-20.9,10.7c-4.6,5.3-8.6,13.8-7.5,21.9
		C71.5,43.3,79.7,38.6,84.6,32.7"/>
	
		<radialGradient id="SVGID_2_" cx="147" cy="209.3333" r="230.0087" gradientTransform="matrix(4.489659e-011 -1 2 8.979319e-011 -271.6667 356.3333)" gradientUnits="userSpaceOnUse">
		<stop  offset="0" style="stop-color:#000000"/>
		<stop  offset="0.5747" style="stop-color:#000000"/>
		<stop  offset="0.5977" style="stop-color:#7D7D7D"/>
		<stop  offset="0.6398" style="stop-color:#575757"/>
		<stop  offset="0.751" style="stop-color:#000000"/>
		<stop  offset="1" style="stop-color:#000000"/>
	</radialGradient>
	<path fill="url(#SVGID_2_)" d="M190.8,150.1c-6.1,1.7-12.4,2.5-18.8,2.5c-14.9,0-22.3-8.4-22.3-25.3V52.8h-12.9V39.3h13.6l0-17.6
		l17.9-7.3v25H189v13.5h-20.6v70.4c0,5.4,0.9,9.1,2.6,11.3s4.8,3.2,9.1,3.2c2.5,0,6-0.5,10.7-1.4V150.1z"/>
	
		<radialGradient id="SVGID_3_" cx="147" cy="209.3333" r="230.0087" gradientTransform="matrix(4.489659e-011 -1 2 8.979319e-011 -271.6667 356.3333)" gradientUnits="userSpaceOnUse">
		<stop  offset="0" style="stop-color:#000000"/>
		<stop  offset="0.5747" style="stop-color:#000000"/>
		<stop  offset="0.5977" style="stop-color:#7D7D7D"/>
		<stop  offset="0.6398" style="stop-color:#575757"/>
		<stop  offset="0.751" style="stop-color:#000000"/>
		<stop  offset="1" style="stop-color:#000000"/>
	</radialGradient>
	<path fill="url(#SVGID_3_)" d="M255.6,150.9h-22L193.1,39.3h19.8l24.5,72.6c0.9,2.8,3.3,10.9,7.1,24.4l3.6-12.1l4-12.2l25.4-72.8
		h19.7L255.6,150.9z"/>
</g>
</svg>
