<svg id="SvgjsSvg1011" width="288" height="288" xmlns="http://www.w3.org/2000/svg" version="1.1" xmlns:xlink="http://www.w3.org/1999/xlink" xmlns:svgjs="http://svgjs.com/svgjs"><defs id="SvgjsDefs1012"></defs><g id="SvgjsG1013"><svg xmlns="http://www.w3.org/2000/svg" width="288" height="288" viewBox="0 0 32 32"><path d="M16.084 0c-8.836 0-16 7.164-16 16s7.164 16 16 16 16-7.164 16-16-7.164-16-16-16zm7.412 11.574l-7.664 11.714c-.002.002-.006.004-.006.006-.04.06-.062.128-.112.184-.07.076-.16.116-.24.174-.02.014-.04.03-.062.044-.124.078-.252.13-.392.164-.046.012-.088.024-.136.032a1.35 1.35 0 0 1-.336.004 1.324 1.324 0 0 1-.234-.036 1.415 1.415 0 0 1-.23-.092c-.064-.03-.132-.038-.192-.076-.044-.028-.068-.072-.106-.106-.016-.014-.036-.018-.052-.032l-4.462-4.126a1.4 1.4 0 0 1 1.9-2.056l3.23 2.988 6.75-10.318a1.4 1.4 0 1 1 2.344 1.532z" fill="#2196f3" class="color000 svgShape"></path></svg></g></svg>