<?xml version="1.0"?>
<svg xmlns="http://www.w3.org/2000/svg" viewBox="0 0 64 64" width="512px" height="512px" class=""><g><g id="TV_box" data-name="TV box"><path d="M57,20H46V18.5A4.505,4.505,0,0,0,41.5,14H6.5A4.505,4.505,0,0,0,2,18.5v35A4.505,4.505,0,0,0,6.5,58H40.1A5.009,5.009,0,0,0,45,62H57a5.006,5.006,0,0,0,5-5V25A5.006,5.006,0,0,0,57,20ZM4,53.5v-35A2.5,2.5,0,0,1,6.5,16h35A2.5,2.5,0,0,1,44,18.5v1.6A5.009,5.009,0,0,0,40,25V56H6.5A2.5,2.5,0,0,1,4,53.5ZM60,57a3,3,0,0,1-3,3H45a3,3,0,0,1-3-3V25a3,3,0,0,1,3-3H57a3,3,0,0,1,3,3Z" data-original="#000000" class="active-path" data-old_color="#000000" fill="#FFFFFF"/><path d="M51,42a6,6,0,1,0,6,6A6.006,6.006,0,0,0,51,42Zm0,10a4,4,0,1,1,4-4A4,4,0,0,1,51,52Z" data-original="#000000" class="active-path" data-old_color="#000000" fill="#FFFFFF"/><path d="M45,26h2a1,1,0,0,0,0-2H45a1,1,0,0,0,0,2Z" data-original="#000000" class="active-path" data-old_color="#000000" fill="#FFFFFF"/><path d="M57,24H55a1,1,0,0,0,0,2h2a1,1,0,0,0,0-2Z" data-original="#000000" class="active-path" data-old_color="#000000" fill="#FFFFFF"/><path d="M45,32h2a1,1,0,0,0,0-2H45a1,1,0,0,0,0,2Z" data-original="#000000" class="active-path" data-old_color="#000000" fill="#FFFFFF"/><path d="M50,32h2a1,1,0,0,0,0-2H50a1,1,0,0,0,0,2Z" data-original="#000000" class="active-path" data-old_color="#000000" fill="#FFFFFF"/><path d="M57,30H55a1,1,0,0,0,0,2h2a1,1,0,0,0,0-2Z" data-original="#000000" class="active-path" data-old_color="#000000" fill="#FFFFFF"/><path d="M45,35h2a1,1,0,0,0,0-2H45a1,1,0,0,0,0,2Z" data-original="#000000" class="active-path" data-old_color="#000000" fill="#FFFFFF"/><path d="M50,35h2a1,1,0,0,0,0-2H50a1,1,0,0,0,0,2Z" data-original="#000000" class="active-path" data-old_color="#000000" fill="#FFFFFF"/><path d="M57,33H55a1,1,0,0,0,0,2h2a1,1,0,0,0,0-2Z" data-original="#000000" class="active-path" data-old_color="#000000" fill="#FFFFFF"/><path d="M47,38a1,1,0,0,0,0-2H45a1,1,0,0,0,0,2Z" data-original="#000000" class="active-path" data-old_color="#000000" fill="#FFFFFF"/><path d="M50,38h2a1,1,0,0,0,0-2H50a1,1,0,0,0,0,2Z" data-original="#000000" class="active-path" data-old_color="#000000" fill="#FFFFFF"/><path d="M57,36H55a1,1,0,0,0,0,2h2a1,1,0,0,0,0-2Z" data-original="#000000" class="active-path" data-old_color="#000000" fill="#FFFFFF"/><path d="M48,56H46a1,1,0,0,0,0,2h2a1,1,0,0,0,0-2Z" data-original="#000000" class="active-path" data-old_color="#000000" fill="#FFFFFF"/><path d="M56,56H54a1,1,0,0,0,0,2h2a1,1,0,0,0,0-2Z" data-original="#000000" class="active-path" data-old_color="#000000" fill="#FFFFFF"/><path d="M43.172,7.171a1,1,0,0,0,.673-.26l.236-.217a12.357,12.357,0,0,1,15.805-.029l.268.244A1,1,0,0,0,61.5,5.431l-.3-.273a14.373,14.373,0,0,0-18.431.029l-.27.245a1,1,0,0,0,.674,1.739Z" data-original="#000000" class="active-path" data-old_color="#000000" fill="#FFFFFF"/><path d="M47.922,11.3a1,1,0,0,0,1.28,1.536,4.372,4.372,0,0,1,5.6,0,1,1,0,1,0,1.28-1.536A6.367,6.367,0,0,0,47.922,11.3Z" data-original="#000000" class="active-path" data-old_color="#000000" fill="#FFFFFF"/><path d="M34,28H14a1,1,0,0,0-1,1V43a1,1,0,0,0,1,1H34a1,1,0,0,0,1-1V29A1,1,0,0,0,34,28ZM33,42H15V30H33Z" data-original="#000000" class="active-path" data-old_color="#000000" fill="#FFFFFF"/><path d="M18,34h5.382l2.723,5.447a1,1,0,0,0,1.79,0l3-6a1,1,0,0,0-1.79-.894L27,36.764,24.9,32.553A1,1,0,0,0,24,32H18a1,1,0,0,0,0,2Z" data-original="#000000" class="active-path" data-old_color="#000000" fill="#FFFFFF"/><path d="M20,35v4a1,1,0,0,0,2,0V35a1,1,0,0,0-2,0Z" data-original="#000000" class="active-path" data-old_color="#000000" fill="#FFFFFF"/><circle cx="24" cy="52" r="2" data-original="#000000" class="active-path" data-old_color="#000000" fill="#FFFFFF"/><circle cx="30" cy="52" r="2" data-original="#000000" class="active-path" data-old_color="#000000" fill="#FFFFFF"/><circle cx="18" cy="52" r="2" data-original="#000000" class="active-path" data-old_color="#000000" fill="#FFFFFF"/><path d="M14,9h2v2a1,1,0,0,0,2,0V9h2a1,1,0,0,0,0-2H18V5a1,1,0,0,0-2,0V7H14a1,1,0,0,0,0,2Z" data-original="#000000" class="active-path" data-old_color="#000000" fill="#FFFFFF"/><path d="M3,7H5V9A1,1,0,0,0,7,9V7H9A1,1,0,0,0,9,5H7V3A1,1,0,0,0,5,3V5H3A1,1,0,0,0,3,7Z" data-original="#000000" class="active-path" data-old_color="#000000" fill="#FFFFFF"/><path d="M41,20a1,1,0,0,0,0-2H39a1,1,0,0,0,0,2Z" data-original="#000000" class="active-path" data-old_color="#000000" fill="#FFFFFF"/><path d="M35,18H27a1,1,0,0,0,0,2h8a1,1,0,0,0,0-2Z" data-original="#000000" class="active-path" data-old_color="#000000" fill="#FFFFFF"/><path d="M58,10a1,1,0,0,0,.708-1.706h0a10.377,10.377,0,0,0-13.412,0h0a1,1,0,0,0,1.349,1.474,8.343,8.343,0,0,1,10.716,0A1,1,0,0,0,58,10Z" data-original="#000000" class="active-path" data-old_color="#000000" fill="#FFFFFF"/></g></g> </svg>
